<svg xmlns="http://www.w3.org/2000/svg" viewBox="0 0 573.7639 146.75244">
  <defs>
    <style>
      .cls-1 {
        fill: #fff;
      }
    </style>
  </defs>
  <g id="Capa_2" data-name="Capa 2">
    <g id="Layer_1" data-name="Layer 1">
      <g>
        <g>
          <path class="cls-1" d="M0,141.96947V2.50129H43.09472q15.22947,0,22.45182,2.66017A30.30634,30.30634,0,0,1,81.33907,18.57758q5.90557,9.80271,5.90558,24.07008,0,18.834-9.61208,30.72938-9.6165,11.891-33.20776,11.891H15.12749v56.70148ZM15.12749,68.81042H44.71743q13.97917,0,20.44782-6.32677,6.47751-6.32455,6.47308-19.07341A29.50527,29.50527,0,0,0,68.455,29.23155q-3.19219-5.89893-7.70562-8.08691-4.52229-2.188-16.32456-2.18577H15.12749Z"/>
          <path class="cls-1" d="M105.61754,141.96947V40.93629h12.65353V56.25q4.85481-10.654,8.9027-14.12549a13.57575,13.57575,0,0,1,9.08-3.47152q7.03614,0,14.36491,5.51541l-4.75284,15.89007q-5.24052-3.71092-10.17957-3.71093a12.39124,12.39124,0,0,0-8.18445,3.139,16.843,16.843,0,0,0-5.23167,8.75195A79.23812,79.23812,0,0,0,119.61,89.072v52.89744Z"/>
        </g>
        <path class="cls-1" d="M159.814,22.191V2.50129h13.99248V22.191Zm0,119.7785V40.93629h13.99248V141.96947Z"/>
        <path class="cls-1" d="M190.63651,111.71449l13.98362-2.66016q1.237,10.70052,6.73909,15.9078,5.50655,5.21393,14.61319,5.2095,9.11108,0,14.09889-4.51786a14.81486,14.81486,0,0,0,4.98338-11.46532,11.13942,11.13942,0,0,0-4.28287-9.32389q-2.95278-2.2811-14.26737-5.70606-16.37332-5.041-21.88431-8.56131a24.04889,24.04889,0,0,1-8.56574-9.42143,28.78848,28.78848,0,0,1-3.04146-13.41168q0-12.94172,8.282-21.02419Q209.568,38.653,224.2167,38.653a37.3399,37.3399,0,0,1,16.227,3.32964,25.71911,25.71911,0,0,1,10.70275,8.9426q3.71093,5.613,5.13412,16.07628l-13.69986,2.28331Q240.6787,52.73192,224.598,52.7297q-9.12438,0-13.60233,3.64886a11.5178,11.5178,0,0,0-4.46908,9.33276,10.4346,10.4346,0,0,0,4.28287,8.814q2.58036,1.89537,15.25163,6.06075,17.43741,5.53316,22.54936,8.81846a22.3301,22.3301,0,0,1,7.96277,8.96033,29.75514,29.75514,0,0,1,2.84638,13.48706q0,14.48461-9.17758,23.44494-9.19088,8.95812-25.06765,8.9559Q195.39378,144.25278,190.63651,111.71449Z"/>
        <path class="cls-1" d="M390.3391.00146V0H365.58031L337.634,98.86475c-1.39813,4.99835-2.62372,9.429-3.66888,13.26153l-3.03327-11.5379L303.27562.00146h-.00934L303.26586,0H276.11644V144.46924h19.56934V41.577l28.74707,102.89221h17.38672L370.77464,43.19482V144.46924H390.344V.00146Z"/>
        <path class="cls-1" d="M484.89574,140.94287a42.42744,42.42744,0,0,1-3.36426-11.46777c-.585-3.9834-.88184-14.02539-.88184-29.84571V76.80225c0-9.42334-.68652-16.748-2.03906-21.77051-1.4541-5.40186-4.95508-9.96631-10.40625-13.5669-3.99951-2.64215-9.13257-4.30737-15.31262-4.97467a60.66616,60.66616,0,0,0-6.54187-.33734c-11.70215,0-20.89551,2.688-27.3252,7.98975-6.43847,5.31494-10.74609,13.78418-12.80273,25.17236l-.45117,2.4961,18.666,3.09082.00025-.0011.01831.003.48242-2.35938c1.40332-6.856,3.52051-11.5083,6.29395-13.8291,2.75976-2.312,7.15039-3.48437,13.0498-3.48437q1.21637,0,2.3454.07989c5.29669.37677,9.17712,2.07111,11.83624,5.16913,2.01856,2.27637,3.08594,6.73633,3.08692,12.8418l-.06153,2.73633c-5.15918,1.97656-12.88672,3.72949-23,5.21386-8.92187,1.26563-15.45508,3.21192-19.97461,5.9502a29.52225,29.52225,0,0,0-10.80273,11.51855,34.91862,34.91862,0,0,0-3.915,16.68457c0,9.457,2.83594,17.12207,8.42773,22.78125,5.60254,5.6709,13.14844,8.5459,22.42969,8.5459a37.53087,37.53087,0,0,0,5.72766-.45257,38.93818,38.93818,0,0,0,11.17957-3.51032,51.78327,51.78327,0,0,0,11.72467-8.04321,39.76562,39.76562,0,0,0,2.35931,8.1897l.64258,1.5332h20.19629ZM427.47,124.71143c-2.5-2.42383-3.71582-5.61817-3.71582-9.76368a14.4909,14.4909,0,0,1,1.64746-7.02929,11.13211,11.13211,0,0,1,4.49316-4.53223,17.34981,17.34981,0,0,1,3.0716-1.25232c.02783-.00891.05883-.018.087-.02685.406-.12824.8338-.25538,1.28906-.38111l.05408-.01452q2.88978-.79422,7.07245-1.51661a109.05826,109.05826,0,0,0,19.98242-5.10925v2.455c0,7.90722-.94433,13.9375-2.80664,17.92187a21.66809,21.66809,0,0,1-8.26269,9.36719,22.565,22.565,0,0,1-12.30567,3.50684q-.85922,0-1.665-.055A13.62962,13.62962,0,0,1,427.47,124.71143Z"/>
        <path class="cls-1" d="M541.56664,88.41064l30.1123-49.97412h-.01007l.00031-.00048H549.1057L534.47679,63.63037c-1.28247,2.11829-2.64966,4.44324-4.08709,6.94623-1.097-2.16339-2.34259-4.541-3.75763-7.17621L513.32543,38.43652h-.01538l-.00025-.00048H489.96019l29.28027,51.0664-31.67968,54.9668h22.85644l20.29047-37.09552,2.26715,4.34259,17.76074,32.75293H573.7639Z"/>
      </g>
    </g>
  </g>
</svg>
