<?xml version="1.0" encoding="utf-8"?>
<!-- Generator: Adobe Illustrator 25.2.1, SVG Export Plug-In . SVG Version: 6.00 Build 0)  -->
<svg version="1.1" id="Capa_1" xmlns="http://www.w3.org/2000/svg" xmlns:xlink="http://www.w3.org/1999/xlink" x="0px" y="0px"
	 viewBox="0 0 1920 1842.9" style="enable-background:new 0 0 1920 1842.9;" xml:space="preserve">
<style type="text/css">
	.st0{fill:#E88622;}
	.st1{fill:url(#SVGID_1_);}
	.st2{fill:#115195;}
</style>
<g id="Capa_2_1_">
	<g id="PLECAS">
		<rect x="0.5" y="1828.9" class="st0" width="1920" height="14"/>
		
			<linearGradient id="SVGID_1_" gradientUnits="userSpaceOnUse" x1="-23.9876" y1="1024.2506" x2="1892.8998" y2="1024.2506" gradientTransform="matrix(1 0 0 -1 0 1892.1143)">
			<stop  offset="0" style="stop-color:#29A7DE"/>
			<stop  offset="4.750000e-03" style="stop-color:#28A5DC"/>
			<stop  offset="9.380999e-02" style="stop-color:#1E84B7"/>
			<stop  offset="0.1892" style="stop-color:#156899"/>
			<stop  offset="0.294" style="stop-color:#0D507F"/>
			<stop  offset="0.4098" style="stop-color:#073E6B"/>
			<stop  offset="0.5426" style="stop-color:#03325E"/>
			<stop  offset="0.7072" style="stop-color:#012A55"/>
			<stop  offset="1" style="stop-color:#002853"/>
		</linearGradient>
		<path class="st1" d="M1247.9,269.1c-91.8-7.2-185.2-24.9-275.5-41.9c-174.7-33-355.3-67.1-529.8-26.5c-3,0.7-6,1.4-8.9,2.1l0,0
			c-44.4,11.3-245.9,70-434,248v1152.5h1916.9V132.3C1711.3,237.2,1477.8,287.2,1247.9,269.1z"/>
	</g>
	<g id="INFO">
		<path class="st2" d="M1747.9,1755.5l19.4-1.2l-2.2,8.3h15.7l-1.8,6.7H1763l-5.3,20.1c0,0-1.4,6.6,4.3,6.6h10.2l2.7-1l-2,6.7
			l-25.9,0.1c0,0-10.8-2.1-7.8-13.8C1742.2,1776.3,1747.9,1755.5,1747.9,1755.5 M1783.2,1771.6c0,0-1.6,5.9-4.5,17.6
			c-2.9,11.6,10,12.5,10,12.5h36.1l3.3-7.1l-2.2,1h-25.3c-4.1,0-3.3-5-3.3-5l1.4-5.3h32l2.9-11.4c1.4-11.6-11-11.2-11-11.2H1794
			C1783.8,1762.6,1783.2,1771.6,1783.2,1771.6 M1813.8,1778.5h-13.3l1.6-6c0,0,0.1-3.2,3-3.2h7.4c0,0,3.3,0.8,2.6,3.3
			C1814.6,1774.7,1813.8,1778.5,1813.8,1778.5 M1839.8,1767.1c0,0-6.1,23.5-7.8,29.2c-1.6,5.7-2.6,5.4-2.6,5.4h22
			c-0.6-0.6-0.2-5.4-0.2-5.4s4.9-19.6,5.7-22.9c0.4-1.9,2.2-3.1,4.1-2.9h10.2c1.4,0,2.8,0.6,3.9,1.5l2.9-9.4h-13.5
			c-5.5,0-7.1,5.2-7.1,5.2v-5.2h-18C1840.8,1763.5,1839.8,1767.1,1839.8,1767.1 M1688.9,1764.7l12.1,20.4l-23.2,16.5h11.8l14.4-10.2
			c0,0,3.5,5.9,4.1,7.1c0.4,1,0.8,2,1,3.1h23.4l-1.8-2.5l-11.2-19.2l24.3-17.4l-13.1,0c-0.2,1.6-3.6,3.7-3.6,3.7l-11.1,8.1
			c0,0-4.9-8.4-5.7-10c-0.8-1.6-0.4-1.8-0.4-1.8h-23.3C1687.6,1763.1,1688.4,1763.8,1688.9,1764.7 M1629.3,1770.4
			c0.9-0.8,2.1-1.3,3.3-1.4h24.1c1.2,0,4.1-0.2,3.5,3.5c-0.6,3.7-2.7,2.9-2.7,2.9s-19.6-0.2-21.6,0c-2,0.2-8.4-1.7-12,11.5
			c-3.7,13.3,8.4,14.7,8.4,14.7h17.5c2.3,0,4.5-4.1,4.5-4.1c0.1,1.4,0.3,2.8,0.8,4.1h18.8c-1-1.4-1.3-3.2-0.8-4.9
			c0,0,4.7-16.1,6.3-23.7c1.6-7.5-6.8-10.4-7.8-10.3c-0.9,0.1-39.4,0-39.4,0L1629.3,1770.4z M1657.5,1782.1c0,0-1.4,7-2.4,10.1
			c-1,3.1-2.9,2.2-2.9,2.2h-7.8c-3.3,0-2.6-2.9-2.6-2.9c0.4-2.5,1-4.9,1.8-7.2c1-2.7,2.9-2.2,2.9-2.2L1657.5,1782.1z M1573,1748.4
			c0.8,0.4,0.2,4.5,0.2,4.5s-11.6,42.7-12.2,44.5c-0.7,1.6-1.7,3-2.9,4.3h50.8c5.5,0,8.4-5.5,8.4-5.5s2.4-8.4,3.3-13.5
			c0.8-5.1-4.9-8.6-4.9-8.6c5.5-0.4,6.7-4.1,7.5-5.5c0.8-1.4,3.3-11.4,3.3-11.4c0-7.6-8-8.8-8-8.8L1573,1748.4z M1602.2,1770.4
			c-2.2,0-13.1-0.2-13.1-0.2l3.7-13.6h12c0,0,2.9,0.3,2.2,3.6c-0.5,2.4-1.2,4.8-2,7.1C1605,1767.3,1604.4,1770.4,1602.2,1770.4
			 M1583,1793l3.9-14.9h11.6c0,0,3.1,0.3,2.7,2.8c-0.4,2.4-2.2,8.6-2.2,8.6s0.2,3.6-4.1,3.6H1583z"/>
		<g>
			<g>
				<path class="st0" d="M795.2,129.6V50.5h24.5c5.8,0,10,0.5,12.7,1.5c3.8,1.4,7,4.1,9,7.6c2.3,4.2,3.5,8.9,3.4,13.7
					c0,7.1-1.8,12.9-5.5,17.4c-3.6,4.5-9.9,6.7-18.8,6.7h-16.6v32.2H795.2z M803.8,88.1h16.8c5.3,0,9.2-1.2,11.6-3.6
					c2.5-2.4,3.7-6,3.7-10.8c0.1-2.8-0.5-5.6-1.8-8c-0.9-2-2.5-3.6-4.4-4.6c-1.7-0.8-4.8-1.2-9.3-1.2h-16.6L803.8,88.1z"/>
				<path class="st0" d="M855.1,129.6V72.3h7.2V81c1.8-4,3.5-6.7,5.1-8c1.4-1.3,3.3-2,5.2-2c3,0.1,5.9,1.2,8.2,3.1l-2.7,9
					c-1.7-1.3-3.7-2-5.8-2.1c-1.7,0-3.4,0.6-4.6,1.8c-1.5,1.3-2.5,3-3,5c-1,3.9-1.5,7.8-1.5,11.8v30H855.1z"/>
			</g>
			<path class="st0" d="M885.9,61.6V50.5h7.9v11.2H885.9z M885.9,129.6V72.3h7.9v57.3H885.9z"/>
			<path class="st0" d="M903.4,112.5l7.9-1.5c0.5,4,1.7,7.1,3.8,9c2.3,2,5.2,3.1,8.3,3c3.4,0,6.1-0.9,8-2.6c1.9-1.6,2.9-4,2.8-6.5
				c0.1-2.1-0.8-4-2.4-5.3c-1.1-0.9-3.8-1.9-8.1-3.2c-6.2-1.9-10.3-3.5-12.4-4.9c-2.1-1.3-3.8-3.2-4.9-5.3c-1.2-2.4-1.8-5-1.7-7.6
				c-0.2-4.5,1.5-8.8,4.7-11.9c3.1-3.1,7.5-4.6,13-4.6c3.2-0.1,6.3,0.6,9.2,1.9c2.5,1.1,4.6,2.9,6.1,5.1c1.6,2.8,2.6,5.9,2.9,9.1
				l-7.8,1.3c-0.7-6.3-4.1-9.4-10.2-9.4c-3.5,0-6,0.7-7.7,2.1c-1.6,1.3-2.6,3.2-2.5,5.3c-0.1,2,0.8,3.8,2.4,5c1,0.7,3.9,1.9,8.7,3.4
				c6.6,2.1,10.9,3.8,12.8,5c1.9,1.3,3.5,3,4.5,5.1c1.1,2.4,1.7,5,1.6,7.7c0,5.5-1.7,9.9-5.2,13.3c-3.5,3.4-8.2,5.1-14.2,5.1
				C911.7,130.9,905.2,124.8,903.4,112.5z"/>
			<path class="st0" d="M1016.7,49.1L1016.7,49.1l-14,0l-15.9,56.1c-0.8,2.8-1.5,5.4-2.1,7.5l-1.7-6.5l-15.7-57.1h0l0,0h-15.4v82
				H963V72.7l16.3,58.4h9.9l16.4-57.5V131h11.1L1016.7,49.1L1016.7,49.1z"/>
			<path class="st0" d="M1070.4,129c-0.9-2.1-1.6-4.3-1.9-6.5c-0.3-2.3-0.5-8-0.5-16.9v-13c0.1-4.1-0.3-8.3-1.2-12.4
				c-0.9-3.2-3-6-5.9-7.7c-2.6-1.6-5.6-2.6-8.7-2.8c-1.2-0.1-2.5-0.2-3.7-0.2c-6.6,0-11.9,1.5-15.5,4.5c-3.7,3-6.1,7.8-7.3,14.3
				l-0.3,1.4l10.6,1.8l0,0l0,0l0.3-1.3c0.8-3.9,2-6.5,3.6-7.8c1.6-1.3,4.1-2,7.4-2c0.5,0,0.9,0,1.3,0c3,0.2,5.2,1.2,6.7,2.9
				c1.1,1.3,1.8,3.8,1.8,7.3l0,1.6c-4.2,1.4-8.6,2.4-13.1,3c-5.1,0.7-8.8,1.8-11.3,3.4c-2.6,1.6-4.7,3.8-6.1,6.5
				c-1.5,2.9-2.3,6.2-2.2,9.5c0,5.4,1.6,9.7,4.8,12.9c3.2,3.2,7.5,4.8,12.7,4.8c1.1,0,2.2-0.1,3.3-0.3c2.2-0.3,4.3-1,6.3-2
				c2.4-1.2,4.7-2.7,6.7-4.6c0.3,1.6,0.7,3.2,1.3,4.6l0.4,0.9h11.5L1070.4,129z M1037.8,119.8c-1.5-1.5-2.2-3.5-2.1-5.5
				c0-1.4,0.3-2.8,0.9-4c0.6-1.1,1.5-2,2.5-2.6c0.6-0.3,1.1-0.5,1.7-0.7l0,0c0.2-0.1,0.5-0.1,0.7-0.2l0,0c1.1-0.3,2.4-0.6,4-0.9
				c3.9-0.6,7.7-1.6,11.3-2.9v1.4c0,4.5-0.5,7.9-1.6,10.2c-1,2.2-2.6,4-4.7,5.3c-2.1,1.3-4.5,2-7,2c-0.3,0-0.6,0-0.9,0
				C1041,121.8,1039.2,121.1,1037.8,119.8L1037.8,119.8z"/>
			<path class="st0" d="M1102.5,99.2l17.1-28.4h0l0,0h-12.8l-8.3,14.3c-0.7,1.2-1.5,2.5-2.3,3.9c-0.6-1.2-1.3-2.6-2.1-4.1l-7.6-14.2
				h0l0,0h-13.2l16.6,29l-18,31.2h13l11.5-21.1l1.3,2.5l10.1,18.6h13.1L1102.5,99.2z"/>
		</g>
	</g>
</g>
</svg>
