<?xml version="1.0" encoding="utf-8"?>
<!-- Generator: Adobe Illustrator 25.2.1, SVG Export Plug-In . SVG Version: 6.00 Build 0)  -->
<svg version="1.1" id="Capa_1" xmlns="http://www.w3.org/2000/svg" xmlns:xlink="http://www.w3.org/1999/xlink" x="0px" y="0px"
	 viewBox="0 0 1920 1719.8" style="enable-background:new 0 0 1920 1719.8;" xml:space="preserve">
<style type="text/css">
	.st0{fill:#002853;}
	.st1{fill:url(#SVGID_1_);}
	.st2{clip-path:url(#SVGID_3_);}
	.st3{fill:#FFFFFF;}
	.st4{opacity:0.9438;}
	.st5{opacity:0.8875;}
	.st6{opacity:0.8313;}
	.st7{opacity:0.775;}
	.st8{opacity:0.7188;}
	.st9{opacity:0.6625;}
	.st10{opacity:0.6062;}
	.st11{opacity:0.55;}
	.st12{opacity:0.4938;}
	.st13{opacity:0.4375;}
	.st14{opacity:0.3812;}
	.st15{opacity:0.325;}
	.st16{opacity:0.2688;}
	.st17{opacity:0.2125;}
	.st18{opacity:0.1562;}
	.st19{opacity:0.1;}
</style>
<g id="Capa_2_1_">
	<g id="FONDO">
		<rect x="-0.2" class="st0" width="1920.2" height="1719.8"/>
	</g>
	<g id="PLECAS">
		
			<linearGradient id="SVGID_1_" gradientUnits="userSpaceOnUse" x1="-2485.6262" y1="-405.0949" x2="-565.3262" y2="-405.0949" gradientTransform="matrix(1 0 0 1 2485.4263 640.4949)">
			<stop  offset="0" style="stop-color:#F8EA21"/>
			<stop  offset="0.1054" style="stop-color:#F3CB21"/>
			<stop  offset="0.22" style="stop-color:#EFB222"/>
			<stop  offset="0.348" style="stop-color:#EC9E22"/>
			<stop  offset="0.4947" style="stop-color:#EA9122"/>
			<stop  offset="0.6765" style="stop-color:#E88822"/>
			<stop  offset="1" style="stop-color:#E88622"/>
		</linearGradient>
		<path class="st1" d="M437.1,219.6L437.1,219.6c3-0.7,6-1.5,9-2.1c174.6-40.6,355.2-6.5,529.8,26.5
			c90.3,17.1,183.7,34.7,275.5,41.9c230,18.1,463.5-31.9,668.7-136.8V0H-0.2v470.8C188.9,290.3,392.5,230.9,437.1,219.6z"/>
		<g>
			<g>
				<defs>
					<rect id="SVGID_2_" y="142.1" width="1920" height="376.7"/>
				</defs>
				<clipPath id="SVGID_3_">
					<use xlink:href="#SVGID_2_"  style="overflow:visible;"/>
				</clipPath>
				<g class="st2">
					<g>
						<path class="st3" d="M2471.2,9.3l5.9,0.9c-15.6,103.4-66.6,202.1-147.7,285.5c-75.2,77.3-174.7,138.6-280,172.5
							c-181,58.3-393.6,55.6-649.9-8.1c-106.3-26.4-212.3-60.7-314.8-93.8c-102.5-33.1-208.4-67.4-314.6-93.8
							c-255.2-63.4-466.7-66-646.6-8C-132.3,347-322.7,550.7-506.9,747.8c-67,71.7-136.2,145.8-207.6,213
							c-203,191-445.6,336-701.7,419.4c-272.3,88.6-549.4,102.6-801.4,40.4l1.4-5.8c493.7,121.9,1067.5-53.7,1497.5-458.3
							c71.3-67.1,140.4-141.1,207.4-212.7C-326.6,546-135.7,341.7,121.6,258.7c181-58.3,393.6-55.7,649.9,7.9
							c106.4,26.4,212.4,60.7,315,93.9c102.4,33.1,208.2,67.4,314.4,93.7c255.2,63.4,466.8,66.1,646.6,8.2
							C2271,390.5,2441.3,208.4,2471.2,9.3z"/>
						<g class="st4">
							<path class="st3" d="M2460.4-0.6l5.9,1.1c-36.8,200.7-206.8,378-433,451.6c-163,53-348.5,57.8-567.2,14.6
								c-26.2-5.2-53.4-11.1-80.8-17.8c-101.9-24.6-203.6-56.5-302-87.4c-106.5-33.4-216.7-68-326.9-93.2
								c-36.2-8.3-71.8-15.3-105.9-20.9c-201-33.1-381-23-535.1,30.1C-1.4,317.6-113.4,384-237.1,486.4
								c-91.1,75.2-177.7,160.8-261.5,243.6c-75.1,74.2-152.8,150.8-232.7,219.1c-117.4,100.4-246.7,186-384.8,255.1
								c-363.4,181.9-760.5,234.9-1118.1,149.2l1.4-5.8c356.3,85.3,751.9,32.5,1114-148.8c137.7-68.9,266.6-154.3,383.6-254.3
								c79.8-68.2,157.4-144.8,232.4-218.8c83.9-82.9,170.7-168.5,261.9-243.9C-116.6,378.9-4,312.2,113.4,271.8
								c155-53.4,336-63.6,538-30.3c34.2,5.6,70,12.7,106.3,21c110.5,25.2,220.7,59.9,327.4,93.3c98.3,30.9,199.9,62.8,301.6,87.3
								c27.4,6.6,54.5,12.6,80.6,17.7c217.7,42.9,402.2,38.2,564.2-14.5C2255.6,373.4,2424,198,2460.4-0.6z"/>
						</g>
						<g class="st5">
							<path class="st3" d="M2449.5-10.6l5.9,1.3c-42.8,197-214.8,371.8-438.2,445.2c-161.5,53.1-351.8,59.5-565.5,19
								c-26-4.9-53.2-10.7-80.7-17.2c-97.9-22.9-195.7-52.8-290.4-81.6c-110.2-33.6-224.2-68.3-338-92
								c-36.1-7.5-71.7-13.7-105.7-18.4c-196-27.4-374.2-12.3-529.7,44.9C-5.4,331.8-117,398.3-243.9,499.9
								c-82.8,66.1-162.7,138.9-239.9,209.3c-85.4,77.8-173.6,158.2-264.4,228.2c-118.2,91.5-249,169.4-388.6,231.4
								c-358.7,159.4-754.4,201.1-1114.3,117.6l1.4-5.9c358.6,83.2,752.9,41.6,1110.5-117.3c139.2-61.8,269.5-139.4,387.4-230.6
								c90.6-69.8,178.8-150.2,264-227.9c77.3-70.5,157.3-143.3,240.2-209.6C-120.2,393.2-8.1,326.3,105.1,284.9
								c156.4-57.5,335.6-72.6,532.6-45.2c34.1,4.8,69.8,11,106.1,18.5c114.1,23.8,228.2,58.5,338.6,92.2
								c94.5,28.8,192.3,58.6,290,81.5c27.4,6.4,54.5,12.2,80.5,17.1c212.7,40.3,401.9,34,562.5-18.8
								C2236.7,357.4,2407.1,184.4,2449.5-10.6z"/>
						</g>
						<g class="st6">
							<path class="st3" d="M2438.7-20.5l5.8,1.5c-48.8,193.3-222.9,365.6-443.4,438.8c-162.4,53.9-352.1,61.8-563.7,23.3
								c-25.8-4.7-53-10.3-80.6-16.5c-94.2-21.4-188.6-49.3-279.8-76.3c-113.6-33.6-231-68.3-348.1-90.4
								c-36.1-6.8-71.6-12.1-105.5-16c-190.9-21.8-367.3-1.7-524.3,59.6c-140.2,54.5-260.5,140.9-349.7,210
								c-71.5,55.2-141.4,114.1-209.1,171.1c-98.6,83-200.6,168.9-305.4,241.3c-119.7,83.2-251.7,153-392.3,207.6
								c-353,137-747.4,167.6-1110.4,86l1.3-5.9c361.9,81.3,755,50.8,1106.9-85.7c140.2-54.4,271.8-124.1,391.1-207
								c104.6-72.2,206.4-158,304.9-240.9c67.7-57,137.7-115.9,209.3-171.2C-164.8,439.4-44,352.8,96.9,298
								c157.9-61.7,335.3-81.9,527.1-60c34,3.9,69.6,9.3,105.9,16.1c117.4,22.1,235,56.9,348.7,90.5
								c91.1,26.9,185.4,54.8,279.4,76.2c27.6,6.3,54.6,11.8,80.4,16.5c210.6,38.3,399.3,30.6,560.7-23
								C2217.8,341.5,2390.3,170.9,2438.7-20.5z"/>
						</g>
						<g class="st7">
							<path class="st3" d="M2427.8-30.4l5.8,1.7C2377.9,163.9,2206,329.6,1985,403.7c-163.3,54.8-352.4,64.1-561.9,27.6
								c-25.9-4.5-53-9.9-80.5-15.9c-90.9-20-182-46.1-270.1-71.4c-116.7-33.5-237.3-68.1-357.4-88.3c-36-6-71.4-10.6-105.2-13.5
								c-185.6-16.4-360.2,8.6-518.8,74.4c-132.1,54.5-250.2,137-348.3,210.6c-55.9,41.7-111.3,85-164.9,126.8
								C-543.8,748.9-658.6,838.6-782,914.2c-121,74.9-254.3,136.8-396,183.9c-350.9,116.6-733.6,135.4-1106.6,54.4l1.3-5.9
								c372,80.8,753.5,62,1103.4-54.2c141.3-46.9,274.1-108.6,394.8-183.3C-662,833.6-547.4,744-426,649.2
								c53.6-41.9,109-85.2,165-126.9C-162.6,448.5-44.1,365.8,88.6,311c159.6-66.2,335.1-91.3,521.7-74.8c34,3,69.6,7.6,105.7,13.6
								c120.4,20.2,241.2,54.9,358.1,88.4c88,25.2,179,51.3,269.7,71.3c27.4,6,54.4,11.4,80.3,15.9c208.6,36.3,396.6,27.1,559-27.4
								C2202.3,324.4,2372.7,160.3,2427.8-30.4z"/>
						</g>
						<g class="st8">
							<path class="st3" d="M2417-40.3l5.7,1.9c-61.7,188.8-235.6,352.1-453.8,426c-164.3,55.7-352.7,66.4-560.2,31.9
								c-25.8-4.3-52.8-9.4-80.4-15.3c-87.8-18.7-176-43.2-261.2-66.9C947.6,304,824,269.6,701.2,251.5c-36-5.3-71.3-9-105-11.1
								c-180.2-11.3-353,18.7-513.4,89.2c-128.9,56.3-246.7,138.5-347,211.1c-32.9,23.7-65.5,47.4-97.9,71.1
								c-147.7,107.8-287.2,209.7-436.8,290.8c-123.7,67.1-258.2,121-399.8,160.1c-341.7,94.5-723,102.4-1102.7,22.8l1.2-5.9
								c378.7,79.4,759.1,71.5,1099.9-22.7c141.1-39,275.2-92.7,398.6-159.6c149.2-80.9,288.6-182.6,436.1-290.3
								c32.4-23.7,65-47.4,97.9-71.1C-167.2,463-49.1,380.6,80.4,324.1c161.3-70.9,335-101.1,516.2-89.7
								c33.9,2.1,69.4,5.8,105.5,11.1c123.1,18.2,246.9,52.6,366.6,85.9c85.1,23.7,173.2,48.2,260.8,66.8
								c27.5,5.8,54.4,11,80.1,15.3c206.5,34.4,394,23.7,557.3-31.7C2183.4,308.5,2355.8,146.7,2417-40.3z"/>
						</g>
						<g class="st9">
							<path class="st3" d="M2406.1-50.3l5.6,2.1c-67.7,185.1-243.6,345.9-459,419.7c-165.2,56.6-353.1,68.8-558.4,36.2
								c-25.6-4.1-52.6-9-80.3-14.7c-85-17.5-170.4-40.5-252.9-62.8c-122.1-32.9-248.4-67-373.6-82.9c-35.9-4.5-71.2-7.4-104.8-8.6
								c-174.8-6.4-345.7,28.5-508,103.9C-51.6,400.9-168.1,482.4-271,554.3c-175.4,122-356.7,248.1-544.8,336.7
								c-125.1,58.9-260.9,104.8-403.6,136.4c-329.7,72.9-709.7,69.8-1098.8-8.8l1.2-5.9c388.3,78.5,767.5,81.5,1096.3,8.8
								c142.3-31.5,277.6-77.2,402.3-136c187.6-88.4,368.7-214.4,543.9-336.2c103-72.1,219.8-153.7,346.5-212.2
								c163.2-75.8,335.1-110.9,510.8-104.5c33.8,1.2,69.2,4.1,105.3,8.7c125.6,16,252.1,50.1,374.4,83.1
								c82.5,22.2,167.8,45.2,252.6,62.7c27.6,5.7,54.5,10.6,80,14.6c204.4,32.4,391.3,20.3,555.5-36
								C2164.5,292.5,2339,133.1,2406.1-50.3z"/>
						</g>
						<g class="st10">
							<path class="st3" d="M2395.3-60.2l5.6,2.3c-74.9,184.1-248.4,338.6-464.2,413.3c-166.2,57.5-353.5,71.1-556.7,40.5
								c-25.5-3.8-52.5-8.6-80.2-14.1c-82.4-16.3-165.2-38-245.3-58.9c-124.5-32.5-253.3-66.2-380.7-79.8
								c-35.9-3.8-71.1-5.9-104.5-6.2C400.1,235.1,230.9,275,66.5,355.6C-43.2,409-146,478.6-245.3,545.9
								c-10.8,7.3-21.6,14.6-32.4,21.9c-170.5,114.4-355.7,231.3-554.9,311.5c-126.3,50.9-263.4,88.8-407.3,112.6
								c-317.9,52.7-686.3,39.1-1095-40.4l1.2-5.9c408,79.3,775.6,92.9,1092.8,40.4c143.5-23.8,280.1-61.6,406-112.3
								c198.7-80,383.6-196.7,553.8-310.9c10.8-7.3,21.6-14.6,32.4-21.9c99.5-67.4,202.4-137.1,312.6-190.7
								c165.3-81,335.3-121.2,505.3-119.3c33.6,0.3,69,2.4,105.1,6.2c127.8,13.7,256.8,47.3,381.6,79.9c80,20.9,162.8,42.5,245,58.8
								c27.6,5.5,54.5,10.2,79.9,14c202.2,30.5,388.5,16.9,553.8-40.3C2148.9,275.5,2321.1,122.3,2395.3-60.2z"/>
						</g>
						<g class="st11">
							<path class="st3" d="M2384.4-70.1l5.5,2.5c-80.9,180.3-256.4,332.4-469.4,406.9c-167.2,58.5-353.9,73.6-554.9,44.8
								c-25.5-3.7-52.5-8.2-80.1-13.5c-80-15.3-160.5-35.6-238.3-55.3c-126.8-32-257.9-65.2-387.2-76.4c-34.7-3-69.5-4.3-104.3-3.8
								C390,237.7,227.4,281.3,58.5,368.6c-94.2,48.4-184.1,107.9-271,165.5c-24,15.9-47.9,31.7-71.9,47.4
								c-211.3,136.7-390.9,227.6-565,286.2c-127.5,42.9-265.8,72.8-411,88.9c-302.6,33.5-649.2,10.6-1091.1-72l1.1-5.9
								c441.2,82.5,787.3,105.3,1089.3,71.9c144.9-16,282.7-45.9,409.8-88.6c173.6-58.4,352.7-149.2,563.6-285.6
								c24-15.6,47.9-31.5,71.9-47.3c87-57.7,177-117.3,271.5-165.8C225.4,275.7,389,231.8,555.6,229.2c35-0.5,70,0.8,104.9,3.8
								c129.9,11.2,261.2,44.4,388.2,76.5c77.8,19.7,158.2,40,238,55.2c27.5,5.3,54.4,9.8,79.8,13.4c200,28.6,385.7,13.6,552.1-44.6
								C2130,259.6,2304.2,108.7,2384.4-70.1z"/>
						</g>
						<g class="st12">
							<path class="st3" d="M2373.6-80.1l5.4,2.7c-87,176.5-264.4,326.3-474.6,400.5c-168.3,59.5-354.4,76-553.1,49.1
								c-25.7-3.5-51.9-7.7-80-12.8c-77.7-14.3-156.1-33.5-231.8-52c-128.9-31.5-262.1-64.1-393.3-72.7
								c-34.6-2.3-69.4-2.7-104.1-1.3c-159.8,6.7-320.7,55.2-491.9,148.2c-79.8,43.1-157.1,93.7-231.9,142.6
								c-35.8,23.5-72.9,47.7-109.6,70.7c-200,124.6-388.2,210-575.1,261c-128.5,35-268.1,57-414.8,65.1
								c-358.8,20-733.8-40.2-1087.2-103.6l1.1-5.9c353,63.3,727.7,123.4,1085.8,103.5c146.3-8.2,285.4-30,413.5-64.9
								c186.4-50.8,374-136,573.5-260.3c36.7-23,73.7-47.2,109.5-70.7c74.9-49,152.3-99.7,232.3-142.9
								c172-93.5,333.7-142.2,494.5-149c34.9-1.4,69.9-1,104.7,1.3c131.7,8.6,265.2,41.3,394.3,72.9
								c75.7,18.5,153.9,37.6,231.5,51.9c28,5.1,54.1,9.3,79.7,12.8c197.8,26.7,382.9,10.3,550.3-48.9
								C2111.1,243.7,2287.3,95.1,2373.6-80.1z"/>
						</g>
						<g class="st13">
							<path class="st3" d="M2362.8-90l5.3,2.9c-94.4,175.3-269.3,319-479.8,394.1c-167,59.6-357.7,78.1-551.4,53.5
								c-25.7-3.3-51.8-7.3-79.9-12.2c-75.6-13.4-152-31.4-225.8-48.9c-130.8-30.9-266-62.9-398.9-68.8
								c-34.6-1.6-69.3-1.2-103.9,1.1c-156,10.7-310.5,62.5-486.5,163C-24.3,432.4-89.5,474.9-152.5,516
								c-47.4,31-96.5,63-145.6,92.6c-191.6,114.9-388.5,194.2-585.2,235.7c-129.4,27.3-270.2,41.2-418.5,41.4h-2.6
								c-306.4,0-617.9-54.4-947.7-112c-44.2-7.7-88.5-15.4-133-23.1l1-5.9c44.5,7.6,88.8,15.3,133,23.1
								c329.5,57.6,640.8,111.9,946.7,111.9h2.6c147.9-0.2,288.3-14,417.3-41.3c196.1-41.4,392.4-120.5,583.4-235
								c49-29.6,98-61.5,145.4-92.5c63.1-41.2,128.3-83.8,194.9-121.6c176.7-101,332.1-153,489-163.8c34.8-2.3,69.7-2.7,104.5-1.2
								c133.4,6,268.9,38,400,69c73.7,17.4,150,35.5,225.4,48.8c28,4.9,54,8.9,79.6,12.2c192.8,24.5,382.5,6.1,548.6-53.2
								C2095.4,226.7,2269.1,84.1,2362.8-90z"/>
						</g>
						<g class="st14">
							<path class="st3" d="M2352-99.9l5.2,3c-100.5,171.5-277.2,312.8-485,387.7c-168.1,60.6-358.2,80.6-549.6,57.8
								c-25.6-3-51.7-6.8-79.8-11.6c-73.7-12.5-148.1-29.5-220.1-45.9c-132.6-30.3-269.7-61.6-404.1-64.8
								c-34.6-0.9-69.2,0.3-103.6,3.6c-151.9,14.5-300.2,69.3-481.1,177.8C-20,439.9-73.4,474.9-125.2,508.9
								c-58.4,38.3-118.7,77.9-179.7,113.3c-187.6,108.3-387.9,179.1-595.4,210.5c-130.3,19.7-272.4,25.7-422.2,17.6
								c-244.7-13.1-489.6-58.9-748.9-107.4c-107.8-20.2-219.3-41-330.5-59.3l1-5.9c111.3,18.2,222.8,39.1,330.6,59.3
								c259.1,48.5,503.8,94.2,748.1,107.3c149.5,8,291.1,2.1,421-17.6c206.7-31.3,406.3-101.9,593.3-209.7
								c60.8-35.3,121.1-74.9,179.4-113.2c51.8-34,105.3-69.1,159.3-101.3c181.6-108.9,330.8-164,483.6-178.6
								c34.7-3.3,69.5-4.5,104.3-3.6c135,3.2,272.4,34.6,405.3,64.9c71.9,16.4,146.3,33.4,219.8,45.9c28,4.8,54,8.5,79.5,11.6
								c190.5,22.7,379.6,2.8,546.9-57.5C2076.6,210.8,2252.2,70.4,2352-99.9z"/>
						</g>
						<g class="st15">
							<path class="st3" d="M2341.1-109.8l5.1,3.2C2239.7,61.1,2061,200.1,1856,274.7c-169.3,61.6-358.7,83.1-547.8,62.1
								c-25.5-2.8-51.6-6.4-79.7-11c-71.9-11.7-144.5-27.7-214.8-43.1c-134.3-29.6-273.1-60.2-408.9-60.6
								c-34.6-0.1-69.1,1.9-103.4,6C315.9,250.9,156.9,338.2,25.8,420.7c-42.2,26.4-84.5,54.6-125.4,81.8
								c-68.6,45.6-139.5,92.8-212,133.3C-497.5,738.9-701.2,801.2-917.1,821c-129.9,12.4-273.2,10.4-426-6.1
								c-200-21.6-397.5-63.4-606.7-107.7c-152.5-32.3-310.1-65.7-468.8-90.5l0.9-5.9c158.9,24.8,316.6,58.2,469.2,90.6
								c209,44.3,406.4,86.1,606.1,107.6c152.4,16.4,295.3,18.5,424.8,6.1c215.1-19.7,418-81.8,603.2-184.5
								c72.3-40.3,143.1-87.5,211.6-133c40.9-27.2,83.2-55.4,125.5-81.9C154.2,332.8,314,245,500.7,222.1
								c34.6-4.1,69.3-6.2,104.1-6.1c136.4,0.4,275.6,31.1,410.1,60.7c70.2,15.5,142.8,31.5,214.5,43.1c28,4.5,54,8.1,79.4,10.9
								c188.2,20.9,376.7-0.4,545.1-61.8C2057.8,194.9,2235.3,56.8,2341.1-109.8z"/>
						</g>
						<g class="st16">
							<path class="st3" d="M2330.3-119.8l5,3.4c-114.2,166.3-290.1,299.5-495.3,375c-170.5,62.7-359.3,85.7-546.1,66.4
								c-25.5-2.6-51.5-6-79.6-10.4c-70.2-10.9-141.2-26-209.9-40.5c-135.8-28.8-276.2-58.6-413.3-56.2c-34.5,0.6-69,3.4-103.2,8.5
								c-177,26.5-330.6,115.3-470.3,207.3c-31.4,20.6-63,42.1-93.6,62.9c-78,53-158.7,107.9-242.4,152.7
								c-183.9,98-391,151.8-615.6,159.9c-131,5.2-275.6-4.9-429.7-29.8c-166.6-27-337.1-68.7-502-109
								c-184.7-45.2-375.7-91.9-569.6-120.7l0.9-5.9c194.2,28.8,385.3,75.6,570.2,120.8c172.4,42.2,335.2,82,501.6,109
								c153.8,24.9,297.9,34.9,428.5,29.8c223.7-8.1,429.9-61.7,613-159.2c83.5-44.7,164-99.4,241.9-152.4
								c30.6-20.8,62.3-42.3,93.7-63c140-92.5,294.4-181.7,472.5-208.4c34.4-5.1,69.2-7.9,103.9-8.5
								c137.7-2.4,278.5,27.4,414.7,56.3c68.6,14.6,139.6,29.6,209.6,40.5c28,4.3,53.9,7.7,79.3,10.3
								c185.8,19.2,373.8-3.7,543.4-66.1C2041.9,177.9,2216.8,45.5,2330.3-119.8z"/>
						</g>
						<g class="st17">
							<path class="st3" d="M2319.5-129.7l4.8,3.6c-120.3,162.4-298,293.3-500.5,368.6c-171.7,63.8-360,88.2-544.3,70.7
								c-25.4-2.4-51.3-5.6-79.5-9.7c-68.6-10.1-138.1-24.3-205.3-38.1c-137.3-28.1-279.3-57.1-417.4-51.7
								c-34.5,1.3-68.9,4.9-102.9,10.9C297,256,147.4,351.5,9.5,446.7C-11.7,461.3-32.9,476-54,490.8
								c-86.7,60.7-176.4,123.4-271.2,172.1c-182.6,93.4-393.3,138.7-625.7,134.6c-132.2-2-278-20-433.4-53.6
								c-141.1-30.5-284.4-71-423-110.2c-208.5-59-424.1-120-644.7-151.1l0.8-6c221,31.1,436.8,92.2,645.5,151.2
								c138.5,39.2,281.8,79.7,422.7,110.1c155,33.5,300.4,51.4,432.3,53.4c231.6,4.1,441.2-41,622.9-134
								c94.4-48.4,183.9-111.1,270.5-171.6c21.1-14.8,42.3-29.5,63.5-44.2C144.7,346,294.8,250.1,473.4,218.4
								c34.3-6,69-9.7,103.7-11C716,202,858.4,231.1,996,259.2c67.1,13.7,136.5,27.9,205,38c28,4.1,53.9,7.3,79.2,9.7
								c183.5,17.5,370.8-6.9,541.6-70.4C2023.2,162,2199.9,31.8,2319.5-129.7z"/>
						</g>
						<g class="st18">
							<path class="st3" d="M2308.7-139.6l4.7,3.7c-128.1,160.9-303,286.1-505.7,362.2c-173,64.9-360.6,90.9-542.6,75
								c-25.2-2.2-51.2-5.2-79.4-9.1c-67.1-9.4-135.2-22.8-201-35.7c-138.7-27.3-282-55.5-421.3-47.1c-34.5,2-68.8,6.5-102.7,13.4
								C291.7,257.4,147,354.6,1.3,459.7c-11.8,8.5-23.5,17-35.2,25.5c-94.7,68.6-192.6,139.5-298.1,191.3
								c-181.9,89.2-395.8,126-635.9,109.4c-135.4-9.2-278.4-34.5-437.2-77.3c-121.3-32.7-243.8-72.5-362.3-111.1
								c-226.4-73.6-460.5-149.7-701.6-181.8l0.8-6c241.6,32.1,476,108.3,702.6,182c118.4,38.5,240.9,78.3,362,111
								c158.4,42.7,301,67.9,436,77.1c238.9,16.6,451.8-20,632.8-108.8c105-51.6,202.7-122.3,297.2-190.8
								c11.8-8.5,23.5-17,35.3-25.5c146.2-105.5,291.5-203,461.8-237.9c34.2-6.9,68.8-11.4,103.6-13.5
								c140-8.4,283.8,19.8,422.8,47.2c65.7,12.9,133.7,26.3,200.7,35.7c28.1,3.9,54,6.9,79.1,9.1c181.1,15.8,367.8-10.1,539.9-74.7
								C2007.3,145,2181.3,20.4,2308.7-139.6z"/>
						</g>
						<g class="st19">
							<path class="st3" d="M2297.9-149.5l4.6,3.9c-256,299.4-658.9,466.2-1051.6,435.2c-92.1-7.3-185.7-24.9-276.2-42
								c-174.1-32.9-354-66.8-527.4-26.5C273.2,261.5,126.4,372.2-15.5,479.3c-101.9,76.9-207.3,156.4-323.2,210.8
								c-283.7,133.2-639.2,127.6-1086.9-17c-105.8-34.2-212.2-73.6-315.2-111.6c-239.9-88.7-487.9-180.5-744.9-212.7l0.8-6
								c257.7,32.3,506,124.2,746.2,213c102.9,38.1,209.2,77.4,314.9,111.6c446.2,144.2,800.2,149.8,1082.4,17.3
								C-226,630.5-120.9,551.2-19.2,474.5C123.3,367,270.6,256,445.9,215.2c174.6-40.6,355.2-6.5,529.8,26.5
								c90.3,17.1,183.7,34.7,275.5,41.9C1642.1,314.4,2043.1,148.5,2297.9-149.5z"/>
						</g>
					</g>
				</g>
			</g>
		</g>
	</g>
	<g id="INFO">
		<g id="Prismax_Helios_Front_Dressed_Oxiris.tif">
			
				<image style="overflow:visible;enable-background:new    ;" width="6857" height="7999" id="Prismax_Helios_Front_Dressed_Oxiris" xlink:href="24FBA12AFDC4D2BA.png"  transform="matrix(0.1635 0 0 0.1635 981.4358 373.9847)">
			</image>
		</g>
		<g>
			<g>
				<path class="st3" d="M797.2,159.3V80.1h24.5c5.8,0,10,0.5,12.7,1.5c3.8,1.4,7,4.1,9,7.6c2.3,4.2,3.5,8.9,3.4,13.7
					c0,7.1-1.8,12.9-5.5,17.4c-3.6,4.5-9.9,6.7-18.8,6.7h-16.6v32.2h-8.7V159.3z M805.8,117.7h16.8c5.3,0,9.2-1.2,11.6-3.6
					c2.5-2.4,3.7-6,3.7-10.8c0.1-2.8-0.5-5.6-1.8-8c-0.9-2-2.5-3.6-4.4-4.6c-1.7-0.8-4.8-1.2-9.3-1.2h-16.6V117.7z"/>
				<path class="st3" d="M857.1,159.3V102h7.2v8.7c1.8-4,3.5-6.7,5.1-8c1.4-1.3,3.3-2,5.2-2c3,0.1,5.9,1.2,8.2,3.1l-2.7,9
					c-1.7-1.3-3.7-2-5.8-2.1c-1.7,0-3.4,0.6-4.6,1.8c-1.5,1.3-2.5,3-3,5c-1,3.9-1.5,7.8-1.5,11.8v30H857.1z"/>
			</g>
			<path class="st3" d="M887.9,91.3V80.1h7.9v11.2L887.9,91.3z M887.9,159.3V102h7.9v57.3H887.9z"/>
			<path class="st3" d="M905.4,142.1l7.9-1.5c0.5,4,1.7,7.1,3.8,9c2.3,2,5.2,3.1,8.3,3c3.4,0,6.1-0.9,8-2.6c1.9-1.6,2.9-4,2.8-6.5
				c0.1-2.1-0.8-4-2.4-5.3c-1.1-0.9-3.8-1.9-8.1-3.2c-6.2-1.9-10.3-3.5-12.4-4.9c-2.1-1.3-3.8-3.2-4.9-5.3c-1.2-2.4-1.8-5-1.7-7.6
				c-0.2-4.5,1.5-8.8,4.7-11.9c3.1-3.1,7.5-4.6,13-4.6c3.2-0.1,6.3,0.6,9.2,1.9c2.5,1.1,4.6,2.9,6.1,5.1c1.6,2.8,2.6,5.9,2.9,9.1
				l-7.8,1.3c-0.7-6.3-4.1-9.4-10.2-9.4c-3.5,0-6,0.7-7.7,2.1c-1.6,1.3-2.6,3.2-2.5,5.3c-0.1,2,0.8,3.8,2.4,5c1,0.7,3.9,1.9,8.7,3.4
				c6.6,2.1,10.9,3.8,12.8,5c1.9,1.3,3.5,3,4.5,5.1c1.1,2.4,1.7,5,1.6,7.7c0,5.5-1.7,9.9-5.2,13.3c-3.5,3.4-8.2,5.1-14.2,5.1
				C913.7,160.5,907.2,154.4,905.4,142.1z"/>
			<path class="st3" d="M1018.7,78.7L1018.7,78.7h-14l-15.9,56.1c-0.8,2.8-1.5,5.4-2.1,7.5l-1.7-6.5l-15.7-57.1l0,0l0,0h-15.4v82
				H965v-58.4l16.3,58.4h9.9l16.4-57.5v57.5h11.1V78.7L1018.7,78.7z"/>
			<path class="st3" d="M1072.4,158.7c-0.9-2.1-1.6-4.3-1.9-6.5c-0.3-2.3-0.5-8-0.5-16.9v-13c0.1-4.1-0.3-8.3-1.2-12.4
				c-0.9-3.2-3-6-5.9-7.7c-2.6-1.6-5.6-2.6-8.7-2.8c-1.2-0.1-2.5-0.2-3.7-0.2c-6.6,0-11.9,1.5-15.5,4.5c-3.7,3-6.1,7.8-7.3,14.3
				l-0.3,1.4l10.6,1.8l0,0l0,0l0.3-1.3c0.8-3.9,2-6.5,3.6-7.8s4.1-2,7.4-2c0.5,0,0.9,0,1.3,0c3,0.2,5.2,1.2,6.7,2.9
				c1.1,1.3,1.8,3.8,1.8,7.3v1.6c-4.2,1.4-8.6,2.4-13.1,3c-5.1,0.7-8.8,1.8-11.3,3.4c-2.6,1.6-4.7,3.8-6.1,6.5
				c-1.5,2.9-2.3,6.2-2.2,9.5c0,5.4,1.6,9.7,4.8,12.9c3.2,3.2,7.5,4.8,12.7,4.8c1.1,0,2.2-0.1,3.3-0.3c2.2-0.3,4.3-1,6.3-2
				c2.4-1.2,4.7-2.7,6.7-4.6c0.3,1.6,0.7,3.2,1.3,4.6l0.4,0.9h11.5L1072.4,158.7z M1039.8,149.5c-1.5-1.5-2.2-3.5-2.1-5.5
				c0-1.4,0.3-2.8,0.9-4c0.6-1.1,1.5-2,2.5-2.6c0.6-0.3,1.1-0.5,1.7-0.7l0,0c0.2-0.1,0.5-0.1,0.7-0.2l0,0c1.1-0.3,2.4-0.6,4-0.9
				c3.9-0.6,7.7-1.6,11.3-2.9v1.4c0,4.5-0.5,7.9-1.6,10.2c-1,2.2-2.6,4-4.7,5.3s-4.5,2-7,2c-0.3,0-0.6,0-0.9,0
				C1043,151.4,1041.2,150.7,1039.8,149.5L1039.8,149.5z"/>
			<path class="st3" d="M1104.5,128.9l17.1-28.4l0,0l0,0h-12.8l-8.3,14.3c-0.7,1.2-1.5,2.5-2.3,3.9c-0.6-1.2-1.3-2.6-2.1-4.1
				l-7.6-14.2l0,0l0,0h-13.2l16.6,29l-18,31.2h13l11.5-21.1l1.3,2.5l10.1,18.6h13.1L1104.5,128.9z"/>
		</g>
	</g>
</g>
</svg>
